<svg xmlns="http://www.w3.org/2000/svg" viewBox="0 0 128 128">
<rect width="128" height="128" rx="24" fill="#f2c14e"/>
<g stroke="#5a3418" stroke-width="5" stroke-linecap="round" stroke-linejoin="round">
<path d="M22 50L22 8L52 30Z" fill="#c98a45"/>
<path d="M106 50L106 8L76 30Z" fill="#c98a45"/>
<path d="M20 60Q20 26 64 26Q108 26 108 60Q108 78 92 92Q80 104 64 104Q48 104 36 92Q20 78 20 60Z" fill="#dda45a"/>
<path d="M36 78Q40 58 64 62Q88 58 92 78Q90 98 64 100Q38 98 36 78Z" fill="#fbecc8"/>
<ellipse cx="64" cy="70" rx="9" ry="6.5" fill="#1a1a1a"/>
<path d="M64 76V86M52 88Q64 94 76 88" fill="none"/>
<ellipse cx="46" cy="52" rx="9" ry="6.5" fill="#fff"/>
<ellipse cx="82" cy="52" rx="9" ry="6.5" fill="#fff"/>
</g>
<circle cx="41" cy="52" r="4" fill="#1a1a1a"/>
<circle cx="77" cy="52" r="4" fill="#1a1a1a"/>
<g font-family="system-ui, sans-serif" font-style="italic" font-weight="700" font-size="13" fill="#b03a1a">
<text x="6" y="122">wow</text>
<text x="82" y="122">such</text>
</g>
</svg>
